<?xml version="1.0" encoding="UTF-8"?>
<svg width="700pt" height="700pt" version="1.1" viewBox="0 0 700 700" xmlns="http://www.w3.org/2000/svg" xmlns:xlink="http://www.w3.org/1999/xlink">
 <defs>
  <symbol id="h" overflow="visible">
   <path d="m19.734-1.1875c-1.0117 0.53125-2.0703 0.93359-3.1719 1.2031-1.1055 0.26953-2.2578 0.40625-3.4531 0.40625-3.5859 0-6.4219-1-8.5156-3-2.0859-2-3.125-4.7109-3.125-8.1406 0-3.4375 1.0391-6.1562 3.125-8.1562 2.0938-2 4.9297-3 8.5156-3 1.1953 0 2.3477 0.13672 3.4531 0.40625 1.1016 0.27344 2.1602 0.66797 3.1719 1.1875v4.4531c-1.0234-0.69531-2.0312-1.207-3.0312-1.5312-1-0.33203-2.0547-0.5-3.1562-0.5-1.9688 0-3.5234 0.63672-4.6562 1.9062-1.1367 1.2617-1.7031 3.0078-1.7031 5.2344 0 2.2188 0.56641 3.9648 1.7031 5.2344 1.1328 1.2617 2.6875 1.8906 4.6562 1.8906 1.1016 0 2.1562-0.16016 3.1562-0.48438 1-0.33203 2.0078-0.84766 3.0312-1.5469z"/>
  </symbol>
  <symbol id="a" overflow="visible">
   <path d="m14.453-11.734c-0.46094-0.20703-0.91406-0.35938-1.3594-0.45312-0.4375-0.10156-0.88672-0.15625-1.3438-0.15625-1.3242 0-2.3438 0.42969-3.0625 1.2812-0.71094 0.84375-1.0625 2.0586-1.0625 3.6406v7.4219h-5.1562v-16.109h5.1562v2.6406c0.66406-1.0508 1.4258-1.8164 2.2812-2.2969 0.85156-0.48828 1.8828-0.73438 3.0938-0.73438 0.16406 0 0.34766 0.007812 0.54688 0.015625 0.20703 0.011719 0.50391 0.042969 0.89062 0.09375z"/>
  </symbol>
  <symbol id="c" overflow="visible">
   <path d="m18.562-8.0938v1.4531h-12.047c0.125 1.2109 0.5625 2.1211 1.3125 2.7344 0.75 0.60547 1.7969 0.90625 3.1406 0.90625 1.082 0 2.1914-0.16016 3.3281-0.48438 1.1328-0.32031 2.3008-0.8125 3.5-1.4688v3.9688c-1.2188 0.46875-2.4375 0.82031-3.6562 1.0469-1.2188 0.23828-2.4375 0.35938-3.6562 0.35938-2.918 0-5.1836-0.73828-6.7969-2.2188-1.6172-1.4883-2.4219-3.5703-2.4219-6.25 0-2.625 0.78906-4.6875 2.375-6.1875 1.5938-1.5078 3.7812-2.2656 6.5625-2.2656 2.5312 0 4.5547 0.76562 6.0781 2.2969 1.5195 1.5234 2.2812 3.5586 2.2812 6.1094zm-5.2969-1.7188c0-0.97656-0.28906-1.7656-0.85938-2.3594-0.57422-0.60156-1.3203-0.90625-2.2344-0.90625-1 0-1.8125 0.28125-2.4375 0.84375-0.61719 0.5625-1 1.3711-1.1562 2.4219z"/>
  </symbol>
  <symbol id="e" overflow="visible">
   <path d="m9.7031-7.25c-1.0742 0-1.8867 0.18359-2.4375 0.54688-0.54297 0.36719-0.8125 0.90234-0.8125 1.6094 0 0.65625 0.21875 1.1719 0.65625 1.5469 0.4375 0.36719 1.0469 0.54688 1.8281 0.54688 0.96875 0 1.7812-0.34766 2.4375-1.0469 0.66406-0.69531 1-1.5664 1-2.6094v-0.59375zm7.8594-1.9375v9.1875h-5.1875v-2.3906c-0.6875 0.98047-1.4648 1.6953-2.3281 2.1406-0.86719 0.44531-1.918 0.67188-3.1562 0.67188-1.668 0-3.0234-0.48438-4.0625-1.4531-1.043-0.97656-1.5625-2.2422-1.5625-3.7969 0-1.8945 0.64844-3.2812 1.9531-4.1562 1.3008-0.88281 3.3438-1.3281 6.125-1.3281h3.0312v-0.40625c0-0.8125-0.32422-1.4062-0.96875-1.7812-0.63672-0.38281-1.6367-0.57812-3-0.57812-1.1055 0-2.1328 0.10938-3.0781 0.32812-0.94922 0.21875-1.8359 0.55469-2.6562 1v-3.9375c1.1016-0.26953 2.2109-0.47266 3.3281-0.60938 1.1133-0.13281 2.2266-0.20312 3.3438-0.20312 2.9062 0 5 0.57422 6.2812 1.7188 1.2891 1.1484 1.9375 3.0117 1.9375 5.5938z"/>
  </symbol>
  <symbol id="d" overflow="visible">
   <path d="m8.0938-20.688v4.5781h5.3125v3.6719h-5.3125v6.8438c0 0.75 0.14844 1.2578 0.45312 1.5156 0.30078 0.26172 0.89062 0.39062 1.7656 0.39062h2.6562v3.6875h-4.4219c-2.0312 0-3.4766-0.42188-4.3281-1.2656-0.84375-0.85156-1.2656-2.2969-1.2656-4.3281v-6.8438h-2.5625v-3.6719h2.5625v-4.5781z"/>
  </symbol>
  <symbol id="g" overflow="visible">
   <path d="m13.438-13.75v-8.6406h5.1875v22.391h-5.1875v-2.3281c-0.71094 0.94922-1.4922 1.6484-2.3438 2.0938-0.85547 0.4375-1.8438 0.65625-2.9688 0.65625-1.9805 0-3.6094-0.78516-4.8906-2.3594-1.2734-1.582-1.9062-3.6172-1.9062-6.1094 0-2.4766 0.63281-4.5039 1.9062-6.0781 1.2812-1.582 2.9102-2.375 4.8906-2.375 1.1133 0 2.0977 0.22656 2.9531 0.67188 0.86328 0.4375 1.6484 1.1328 2.3594 2.0781zm-3.3906 10.422c1.1016 0 1.9414-0.39844 2.5156-1.2031 0.58203-0.80078 0.875-1.9727 0.875-3.5156 0-1.5312-0.29297-2.6953-0.875-3.5-0.57422-0.8125-1.4141-1.2188-2.5156-1.2188-1.0938 0-1.9336 0.40625-2.5156 1.2188-0.58594 0.80469-0.875 1.9688-0.875 3.5 0 1.543 0.28906 2.7148 0.875 3.5156 0.58203 0.80469 1.4219 1.2031 2.5156 1.2031z"/>
  </symbol>
  <symbol id="k" overflow="visible">
   <path d="m11.047-3.3281c1.1016 0 1.9453-0.39844 2.5312-1.2031 0.58203-0.80078 0.875-1.9727 0.875-3.5156 0-1.5312-0.29297-2.6953-0.875-3.5-0.58594-0.8125-1.4297-1.2188-2.5312-1.2188-1.1055 0-1.9531 0.40625-2.5469 1.2188-0.58594 0.8125-0.875 1.9805-0.875 3.5 0 1.5312 0.28906 2.7031 0.875 3.5156 0.59375 0.80469 1.4414 1.2031 2.5469 1.2031zm-3.4219-10.422c0.70703-0.94531 1.4922-1.6406 2.3594-2.0781 0.86328-0.44531 1.8594-0.67188 2.9844-0.67188 1.9766 0 3.6016 0.79297 4.875 2.375 1.2812 1.5742 1.9219 3.6016 1.9219 6.0781 0 2.4922-0.64062 4.5273-1.9219 6.1094-1.2734 1.5742-2.8984 2.3594-4.875 2.3594-1.125 0-2.1211-0.22656-2.9844-0.67188-0.86719-0.44531-1.6523-1.1406-2.3594-2.0781v2.3281h-5.1562v-22.391h5.1562z"/>
  </symbol>
  <symbol id="j" overflow="visible">
   <path d="m0.35938-16.109h5.1562l4.3281 10.922 3.6875-10.922h5.1406l-6.7656 17.641c-0.6875 1.7891-1.4844 3.0391-2.3906 3.75-0.90625 0.71875-2.1055 1.0781-3.5938 1.0781h-2.9688v-3.375h1.6094c0.875 0 1.5078-0.14062 1.9062-0.42188 0.39453-0.28125 0.70312-0.78125 0.92188-1.5l0.15625-0.4375z"/>
  </symbol>
  <symbol id="i" overflow="visible">
   <path d="m2.7031-21.484h5.5469v19.391c0 2.6758-0.73047 4.6758-2.1875 6-1.4492 1.332-3.6484 2-6.5938 2h-1.125v-4.1875h0.85938c1.1562 0 2.0234-0.32422 2.6094-0.96875 0.59375-0.64844 0.89062-1.5938 0.89062-2.8438z"/>
  </symbol>
  <symbol id="b" overflow="visible">
   <path d="m10.141-12.828c-1.1367 0-2.0078 0.41406-2.6094 1.2344-0.59375 0.82422-0.89062 2.0078-0.89062 3.5469 0 1.543 0.29688 2.7266 0.89062 3.5469 0.60156 0.82422 1.4727 1.2344 2.6094 1.2344 1.125 0 1.9844-0.41016 2.5781-1.2344 0.59375-0.82031 0.89062-2.0039 0.89062-3.5469 0-1.5391-0.29688-2.7227-0.89062-3.5469-0.59375-0.82031-1.4531-1.2344-2.5781-1.2344zm0-3.6719c2.7695 0 4.9375 0.75 6.5 2.25 1.5625 1.4922 2.3438 3.5586 2.3438 6.2031 0 2.6484-0.78125 4.7188-2.3438 6.2188s-3.7305 2.25-6.5 2.25c-2.7812 0-4.9609-0.75-6.5312-2.25-1.5625-1.5-2.3438-3.5703-2.3438-6.2188 0-2.6445 0.78125-4.7109 2.3438-6.2031 1.5703-1.5 3.75-2.25 6.5312-2.25z"/>
  </symbol>
  <symbol id="f" overflow="visible">
   <path d="m18.672-9.8125v9.8125h-5.1719v-7.5156c0-1.3828-0.03125-2.3438-0.09375-2.875s-0.17188-0.91406-0.32812-1.1562c-0.19922-0.34375-0.47656-0.60938-0.82812-0.79688-0.34375-0.1875-0.73438-0.28125-1.1719-0.28125-1.0742 0-1.918 0.41797-2.5312 1.25-0.61719 0.83594-0.92188 1.9844-0.92188 3.4531v7.9219h-5.1562v-16.109h5.1562v2.3594c0.78125-0.94531 1.6016-1.6406 2.4688-2.0781 0.875-0.44531 1.8438-0.67188 2.9062-0.67188 1.8516 0 3.2578 0.57422 4.2188 1.7188 0.96875 1.1367 1.4531 2.793 1.4531 4.9688z"/>
  </symbol>
  <symbol id="t" overflow="visible">
   <path d="m2.4688-16.109h5.1562v16.109h-5.1562zm0-6.2812h5.1562v4.2031h-5.1562z"/>
  </symbol>
  <symbol id="s" overflow="visible">
   <path d="m13.078-22.391v3.375h-2.8438c-0.73047 0-1.2422 0.13672-1.5312 0.40625-0.28125 0.26172-0.42188 0.71875-0.42188 1.375v1.125h4.3906v3.6719h-4.3906v12.438h-5.1562v-12.438h-2.5625v-3.6719h2.5625v-1.125c0-1.7578 0.48828-3.0547 1.4688-3.8906 0.97656-0.84375 2.4922-1.2656 4.5469-1.2656z"/>
  </symbol>
  <symbol id="r" overflow="visible">
   <path d="m17.406-13.438c0.65625-1 1.4297-1.7578 2.3281-2.2812 0.89453-0.51953 1.8789-0.78125 2.9531-0.78125 1.8516 0 3.2656 0.57422 4.2344 1.7188 0.96875 1.1367 1.4531 2.793 1.4531 4.9688v9.8125h-5.1875v-8.4062c0.007812-0.125 0.015625-0.25391 0.015625-0.39062 0.007813-0.13281 0.015625-0.32812 0.015625-0.57812 0-1.1328-0.16797-1.957-0.5-2.4688-0.33594-0.51953-0.875-0.78125-1.625-0.78125-0.98047 0-1.7344 0.40625-2.2656 1.2188-0.53125 0.80469-0.80859 1.9688-0.82812 3.5v7.9062h-5.1719v-8.4062c0-1.7812-0.15625-2.9258-0.46875-3.4375-0.30469-0.51953-0.85156-0.78125-1.6406-0.78125-0.99219 0-1.7578 0.40625-2.2969 1.2188-0.53125 0.8125-0.79688 1.9766-0.79688 3.4844v7.9219h-5.1719v-16.109h5.1719v2.3594c0.63281-0.91406 1.3594-1.6016 2.1719-2.0625 0.82031-0.45703 1.7266-0.6875 2.7188-0.6875 1.1133 0 2.0977 0.27344 2.9531 0.8125 0.85156 0.53125 1.5 1.2812 1.9375 2.25z"/>
  </symbol>
  <symbol id="q" overflow="visible">
   <path d="m18.672-9.8125v9.8125h-5.1719v-7.4844c0-1.4062-0.03125-2.375-0.09375-2.9062s-0.17188-0.91406-0.32812-1.1562c-0.19922-0.34375-0.47656-0.60938-0.82812-0.79688-0.34375-0.1875-0.73438-0.28125-1.1719-0.28125-1.0742 0-1.918 0.41797-2.5312 1.25-0.61719 0.83594-0.92188 1.9844-0.92188 3.4531v7.9219h-5.1562v-22.391h5.1562v8.6406c0.78125-0.94531 1.6016-1.6406 2.4688-2.0781 0.875-0.44531 1.8438-0.67188 2.9062-0.67188 1.8516 0 3.2578 0.57422 4.2188 1.7188 0.96875 1.1367 1.4531 2.793 1.4531 4.9688z"/>
  </symbol>
  <symbol id="p" overflow="visible">
   <path d="m2.7031-21.484h6.1875l7.8125 14.734v-14.734h5.25v21.484h-6.1875l-7.8125-14.734v14.734h-5.25z"/>
  </symbol>
  <symbol id="o" overflow="visible">
   <path d="m2.2969-6.2812v-9.8281h5.1875v1.6094c0 0.875-0.007813 1.9766-0.015625 3.2969-0.011719 1.3125-0.015625 2.1875-0.015625 2.625 0 1.293 0.03125 2.2266 0.09375 2.7969 0.070313 0.57422 0.19141 0.99219 0.35938 1.25 0.20703 0.33594 0.47656 0.59375 0.8125 0.78125 0.34375 0.17969 0.73828 0.26562 1.1875 0.26562 1.0703 0 1.9141-0.41016 2.5312-1.2344 0.61328-0.82031 0.92188-1.9688 0.92188-3.4375v-7.9531h5.1406v16.109h-5.1406v-2.3281c-0.78125 0.9375-1.6094 1.6328-2.4844 2.0781-0.86719 0.44531-1.8203 0.67188-2.8594 0.67188-1.8672 0-3.2891-0.56641-4.2656-1.7031-0.96875-1.1445-1.4531-2.8125-1.4531-5z"/>
  </symbol>
  <symbol id="n" overflow="visible">
   <path d="m2.7031-21.484h9.2031c2.7266 0 4.8203 0.60938 6.2812 1.8281 1.4688 1.2109 2.2031 2.9375 2.2031 5.1875s-0.73438 3.9844-2.2031 5.2031c-1.4609 1.2109-3.5547 1.8125-6.2812 1.8125h-3.6562v7.4531h-5.5469zm5.5469 4.0156v6h3.0625c1.0703 0 1.8984-0.25781 2.4844-0.78125 0.58203-0.51953 0.875-1.2578 0.875-2.2188 0-0.96875-0.29297-1.707-0.875-2.2188-0.58594-0.51953-1.4141-0.78125-2.4844-0.78125z"/>
  </symbol>
  <symbol id="m" overflow="visible">
   <path d="m2.4688-16.109h5.1562v15.828c0 2.1562-0.52344 3.8008-1.5625 4.9375-1.0312 1.1328-2.5312 1.7031-4.5 1.7031h-2.5469v-3.375h0.89062c0.97656 0 1.6484-0.22656 2.0156-0.67188 0.36328-0.4375 0.54688-1.3047 0.54688-2.5938zm0-6.2812h5.1562v4.2031h-5.1562z"/>
  </symbol>
  <symbol id="l" overflow="visible">
   <path d="m15.5-15.609v4.2031c-0.69922-0.47656-1.4023-0.83203-2.1094-1.0625-0.71094-0.23828-1.4453-0.35938-2.2031-0.35938-1.4375 0-2.5586 0.42188-3.3594 1.2656-0.79297 0.84375-1.1875 2.0156-1.1875 3.5156 0 1.5117 0.39453 2.6875 1.1875 3.5312 0.80078 0.83594 1.9219 1.25 3.3594 1.25 0.8125 0 1.5781-0.11719 2.2969-0.35938 0.72656-0.23828 1.3984-0.59375 2.0156-1.0625v4.2188c-0.8125 0.29297-1.6367 0.50781-2.4688 0.65625-0.82422 0.15625-1.6523 0.23438-2.4844 0.23438-2.9062 0-5.1836-0.74219-6.8281-2.2344-1.6367-1.5-2.4531-3.5781-2.4531-6.2344s0.81641-4.7266 2.4531-6.2188c1.6445-1.4883 3.9219-2.2344 6.8281-2.2344 0.84375 0 1.6758 0.074219 2.5 0.21875 0.82031 0.14844 1.6406 0.37109 2.4531 0.67188z"/>
  </symbol>
 </defs>
 <g>
  <path d="m433.29 376.02c-6.1914 0-11.258 5.0117-11.258 11.258 0 6.25 5.0117 11.258 11.258 11.258 6.1914 0 11.258-5.0117 11.258-11.258s-5.0703-11.258-11.258-11.258zm-200.01 26.234c-6.1914 0-11.258 5.0703-11.258 11.258 0 6.1914 5.0117 11.258 11.258 11.258 6.1914 0 11.258-5.0117 11.258-11.258 0-6.1289-5.0703-11.258-11.258-11.258zm230.89 0c-6.1914 0-11.258 5.0703-11.258 11.258 0 6.1914 5.0117 11.258 11.258 11.258 6.1914 0 11.258-5.0117 11.258-11.258 0.003906-6.1289-5.0664-11.258-11.258-11.258zm-198.95-26.234c-6.1914 0-11.258 5.0117-11.258 11.258 0 6.25 5.0117 11.258 11.258 11.258 6.25 0 11.258-5.0117 11.258-11.258s-5.0117-11.258-11.258-11.258zm-76.516-18.801-27.824 80.816h378.15l-27.762-80.816zm106.05 38.609h110.47v4.5391h-110.47zm-61.48 33.48c-8.7227 0-15.738-7.0742-15.738-15.738 0-8.7227 7.0742-15.797 15.738-15.797 8.7227 0 15.797 7.1328 15.797 15.797 0 8.6641-7.0742 15.738-15.797 15.738zm16.211-42.086c0-8.7227 7.0742-15.738 15.738-15.738s15.738 7.0742 15.738 15.738c0 8.7227-7.0742 15.738-15.738 15.738s-15.738-7.0156-15.738-15.738zm181.85 30.594h-162.75v-4.5391h162.75zm1.9453-14.797c-8.7227 0-15.738-7.0742-15.738-15.738 0-8.7227 7.0742-15.738 15.738-15.738 8.7227 0 15.738 7.0742 15.738 15.738 0 8.6641-7.0742 15.738-15.738 15.738zm30.887 26.289c-8.7227 0-15.738-7.0742-15.738-15.738 0-8.7227 7.0742-15.797 15.738-15.797 8.7227 0 15.797 7.1328 15.797 15.797 0.003907 8.6641-7.1289 15.738-15.797 15.738zm101.8-322.5h-432.03c-16.445 0-29.828 13.383-29.828 29.828v316.55h491.74v-316.55c0.003906-16.445-13.379-29.828-29.883-29.828zm-411.39 335.77 30.887-89.895h329.04l30.887 89.895zm400.19-94.316h-409.56v-29.414h409.62v29.414zm0-88.48c0 23.105-18.688 41.793-41.793 41.793h-326.04c-23.047 0-41.734-18.688-41.734-41.793v-69.617c0-23.105 18.688-41.793 41.734-41.793h326.04c23.105 0 41.793 18.688 41.793 41.793zm-341.71-71.207c-20.043 0-36.43 16.328-36.43 36.43 0 20.043 16.328 36.43 36.43 36.43 20.043 0 36.43-16.328 36.43-36.43 0-20.102-16.328-36.43-36.43-36.43zm25.168 39.73c-0.58984 4.5977-2.418 8.7812-5.1875 12.262l-5.1289-5.0703-4.5977 4.5977 5.0703 5.0703c-3.418 2.6523-7.5469 4.4219-12.023 4.9531v-7.0156h-6.6016v7.0156c-4.5977-0.58984-8.7812-2.418-12.262-5.1875l4.832-4.832-4.6562-4.5977-4.7734 4.7734c-2.6523-3.418-4.4219-7.5469-4.9531-12.023h7.0156v-6.543h-7.0156c0.53125-4.4805 2.3008-8.6055 4.9531-12.023l4.7734 4.832 4.6562-4.6562-4.832-4.832c3.4766-2.7695 7.7227-4.5977 12.262-5.1875v7.0156h6.6016v-7.0234c4.4219 0.53125 8.5469 2.3008 12.023 4.9531l-5.0703 5.0703 4.5977 4.6562 5.1289-5.1289c2.7695 3.4766 4.5977 7.7227 5.1875 12.32h-7.0156v6.543h7.0156zm248.7-39.73c-20.102 0-36.43 16.328-36.43 36.43 0 20.043 16.328 36.43 36.43 36.43 20.043 0 36.43-16.328 36.43-36.43-0.058593-20.102-16.387-36.43-36.43-36.43zm25.113 39.73c-0.58984 4.5977-2.418 8.7812-5.1875 12.262l-5.1289-5.0703-4.5977 4.5977 5.0703 5.0703c-3.418 2.6523-7.5469 4.4219-12.023 4.9531v-7.0156h-6.543v7.0156c-4.5977-0.58984-8.8438-2.418-12.32-5.1875l4.8945-4.832-4.6562-4.5977-4.832 4.7734c-2.5938-3.418-4.3633-7.5469-4.9531-12.023h7.0742v-6.543h-7.0742c0.58984-4.4805 2.3594-8.6055 4.9531-12.023l4.832 4.832 4.6562-4.6562-4.8945-4.832c3.4766-2.7695 7.7227-4.5977 12.32-5.1875v7.0156h6.543l-0.003907-7.0234c4.4805 0.53125 8.6055 2.3008 12.023 4.9531l-5.0703 5.0703 4.5977 4.6562 5.1289-5.1289c2.7109 3.4766 4.5977 7.7227 5.1875 12.32l-7.0117-0.003906v6.543l7.0156 0.003906zm-237.73-45.805v84.941h151.32v-84.883h-149.02zm146.84 4.5391v75.867h-73.801c3.5977-9.1367 12.613-38.375-0.53125-75.805l74.332-0.003906z"/>
  <use x="70" y="648.421875" xlink:href="#h"/>
  <use x="91.628906" y="648.421875" xlink:href="#a"/>
  <use x="106.164062" y="648.421875" xlink:href="#c"/>
  <use x="126.15625" y="648.421875" xlink:href="#e"/>
  <use x="146.042969" y="648.421875" xlink:href="#d"/>
  <use x="160.132812" y="648.421875" xlink:href="#c"/>
  <use x="180.125" y="648.421875" xlink:href="#g"/>
  <use x="211.480469" y="648.421875" xlink:href="#k"/>
  <use x="232.582031" y="648.421875" xlink:href="#j"/>
  <use x="262.054688" y="648.421875" xlink:href="#i"/>
  <use x="273.019531" y="648.421875" xlink:href="#b"/>
  <use x="293.269531" y="648.421875" xlink:href="#a"/>
  <use x="307.804688" y="648.421875" xlink:href="#g"/>
  <use x="328.902344" y="648.421875" xlink:href="#e"/>
  <use x="348.792969" y="648.421875" xlink:href="#f"/>
  <use x="380.035156" y="648.421875" xlink:href="#h"/>
  <use x="401.664063" y="648.421875" xlink:href="#b"/>
  <use x="421.914062" y="648.421875" xlink:href="#a"/>
  <use x="436.449219" y="648.421875" xlink:href="#t"/>
  <use x="446.550781" y="648.421875" xlink:href="#f"/>
  <use x="467.535156" y="648.421875" xlink:href="#e"/>
  <use x="70" y="677.894531" xlink:href="#s"/>
  <use x="82.824219" y="677.894531" xlink:href="#a"/>
  <use x="97.359375" y="677.894531" xlink:href="#b"/>
  <use x="117.605469" y="677.894531" xlink:href="#r"/>
  <use x="158.578125" y="677.894531" xlink:href="#d"/>
  <use x="172.667969" y="677.894531" xlink:href="#q"/>
  <use x="193.652344" y="677.894531" xlink:href="#c"/>
  <use x="223.902344" y="677.894531" xlink:href="#p"/>
  <use x="248.570312" y="677.894531" xlink:href="#b"/>
  <use x="268.816406" y="677.894531" xlink:href="#o"/>
  <use x="289.800781" y="677.894531" xlink:href="#f"/>
  <use x="321.042969" y="677.894531" xlink:href="#n"/>
  <use x="342.644531" y="677.894531" xlink:href="#a"/>
  <use x="357.179688" y="677.894531" xlink:href="#b"/>
  <use x="377.429688" y="677.894531" xlink:href="#m"/>
  <use x="387.53125" y="677.894531" xlink:href="#c"/>
  <use x="407.523437" y="677.894531" xlink:href="#l"/>
  <use x="424.992188" y="677.894531" xlink:href="#d"/>
 </g>
</svg>
